<?xml version="1.0" encoding="UTF-8" standalone="no"?>
<!DOCTYPE svg PUBLIC "-//W3C//DTD SVG 1.1//EN"
 "http://www.w3.org/Graphics/SVG/1.1/DTD/svg11.dtd">
<!-- Generated by graphviz version 9.0.0 (20230911.1827)
 -->
<!-- Pages: 1 -->
<svg width="1400pt" height="1008pt"
 viewBox="0.00 0.00 1400.30 1008.00" xmlns="http://www.w3.org/2000/svg" xmlns:xlink="http://www.w3.org/1999/xlink">
<g id="graph0" class="graph" transform="scale(1 1) rotate(0) translate(36 972)">
<polygon fill="white" stroke="none" points="-36,36 -36,-972 1364.3,-972 1364.3,36 -36,36"/>
<!-- jqt -->
<g id="node1" class="node">
<title>jqt</title>
<ellipse fill="none" stroke="black" cx="173" cy="-738" rx="27" ry="18"/>
<text text-anchor="middle" x="173" y="-732.95" font-family="Times,serif" font-size="14.00">jqt</text>
</g>
<!-- rhn -->
<g id="node2" class="node">
<title>rhn</title>
<ellipse fill="none" stroke="black" cx="173" cy="-558" rx="27" ry="18"/>
<text text-anchor="middle" x="173" y="-552.95" font-family="Times,serif" font-size="14.00">rhn</text>
</g>
<!-- jqt&#45;&#45;rhn -->
<g id="edge1" class="edge">
<title>jqt&#45;&#45;rhn</title>
<path fill="none" stroke="black" d="M173,-719.61C173,-685.58 173,-610.55 173,-576.46"/>
</g>
<!-- xhk -->
<g id="node3" class="node">
<title>xhk</title>
<ellipse fill="none" stroke="black" cx="27" cy="-198" rx="27" ry="18"/>
<text text-anchor="middle" x="27" y="-192.95" font-family="Times,serif" font-size="14.00">xhk</text>
</g>
<!-- jqt&#45;&#45;xhk -->
<g id="edge2" class="edge">
<title>jqt&#45;&#45;xhk</title>
<path fill="none" stroke="black" d="M165.5,-720.38C152.69,-691.51 126.4,-629.99 110,-576 68.62,-439.73 38.75,-269.93 29.79,-216.15"/>
</g>
<!-- rhn&#45;&#45;xhk -->
<g id="edge10" class="edge">
<title>rhn&#45;&#45;xhk</title>
<path fill="none" stroke="black" d="M166.15,-540.21C141.63,-480.08 58.33,-275.83 33.83,-215.75"/>
</g>
<!-- hfx -->
<g id="node8" class="node">
<title>hfx</title>
<ellipse fill="none" stroke="black" cx="246" cy="-18" rx="27" ry="18"/>
<text text-anchor="middle" x="246" y="-12.95" font-family="Times,serif" font-size="14.00">hfx</text>
</g>
<!-- rhn&#45;&#45;hfx -->
<g id="edge12" class="edge">
<title>rhn&#45;&#45;hfx</title>
<path fill="none" stroke="black" d="M175.35,-539.71C186.34,-458.68 232.69,-117.11 243.66,-36.23"/>
</g>
<!-- bvb -->
<g id="node13" class="node">
<title>bvb</title>
<ellipse fill="none" stroke="black" cx="309" cy="-378" rx="27" ry="18"/>
<text text-anchor="middle" x="309" y="-372.95" font-family="Times,serif" font-size="14.00">bvb</text>
</g>
<!-- rhn&#45;&#45;bvb -->
<g id="edge11" class="edge">
<title>rhn&#45;&#45;bvb</title>
<path fill="none" stroke="black" d="M184.83,-541.52C210.55,-507.85 271.32,-428.32 297.1,-394.58"/>
</g>
<!-- xhk&#45;&#45;hfx -->
<g id="edge6" class="edge">
<title>xhk&#45;&#45;hfx</title>
<path fill="none" stroke="black" d="M43.46,-183.62C84.05,-150.63 188.56,-65.68 229.35,-32.53"/>
</g>
<!-- rsh -->
<g id="node4" class="node">
<title>rsh</title>
<ellipse fill="none" stroke="black" cx="956" cy="-738" rx="27" ry="18"/>
<text text-anchor="middle" x="956" y="-732.95" font-family="Times,serif" font-size="14.00">rsh</text>
</g>
<!-- frs -->
<g id="node5" class="node">
<title>frs</title>
<ellipse fill="none" stroke="black" cx="1019" cy="-558" rx="27" ry="18"/>
<text text-anchor="middle" x="1019" y="-552.95" font-family="Times,serif" font-size="14.00">frs</text>
</g>
<!-- rsh&#45;&#45;frs -->
<g id="edge3" class="edge">
<title>rsh&#45;&#45;frs</title>
<path fill="none" stroke="black" d="M961.93,-720.25C973.93,-686.33 1001.01,-609.83 1013.04,-575.83"/>
</g>
<!-- pzl -->
<g id="node6" class="node">
<title>pzl</title>
<ellipse fill="none" stroke="black" cx="893" cy="-558" rx="27" ry="18"/>
<text text-anchor="middle" x="893" y="-552.95" font-family="Times,serif" font-size="14.00">pzl</text>
</g>
<!-- rsh&#45;&#45;pzl -->
<g id="edge4" class="edge">
<title>rsh&#45;&#45;pzl</title>
<path fill="none" stroke="black" d="M950.07,-720.25C938.07,-686.33 910.99,-609.83 898.96,-575.83"/>
</g>
<!-- lsr -->
<g id="node7" class="node">
<title>lsr</title>
<ellipse fill="none" stroke="black" cx="747" cy="-378" rx="27" ry="18"/>
<text text-anchor="middle" x="747" y="-372.95" font-family="Times,serif" font-size="14.00">lsr</text>
</g>
<!-- rsh&#45;&#45;lsr -->
<g id="edge5" class="edge">
<title>rsh&#45;&#45;lsr</title>
<path fill="none" stroke="black" d="M942.4,-722.44C917.58,-695.3 864.35,-634.44 830,-576 793.14,-513.29 764.07,-431.13 752.47,-396.06"/>
</g>
<!-- frs&#45;&#45;lsr -->
<g id="edge30" class="edge">
<title>frs&#45;&#45;lsr</title>
<path fill="none" stroke="black" d="M1000.3,-544.77C950.61,-512.25 815.67,-423.94 765.83,-391.32"/>
</g>
<!-- qnr -->
<g id="node10" class="node">
<title>qnr</title>
<ellipse fill="none" stroke="black" cx="1165" cy="-378" rx="27" ry="18"/>
<text text-anchor="middle" x="1165" y="-372.95" font-family="Times,serif" font-size="14.00">qnr</text>
</g>
<!-- frs&#45;&#45;qnr -->
<g id="edge28" class="edge">
<title>frs&#45;&#45;qnr</title>
<path fill="none" stroke="black" d="M1031.45,-541.82C1058.96,-508.28 1124.7,-428.13 1152.38,-394.39"/>
</g>
<!-- lhk -->
<g id="node12" class="node">
<title>lhk</title>
<ellipse fill="none" stroke="black" cx="1097" cy="-18" rx="27" ry="18"/>
<text text-anchor="middle" x="1097" y="-12.95" font-family="Times,serif" font-size="14.00">lhk</text>
</g>
<!-- frs&#45;&#45;lhk -->
<g id="edge29" class="edge">
<title>frs&#45;&#45;lhk</title>
<path fill="none" stroke="black" d="M1021.51,-539.71C1033.25,-458.68 1082.78,-117.11 1094.5,-36.23"/>
</g>
<!-- pzl&#45;&#45;lsr -->
<g id="edge15" class="edge">
<title>pzl&#45;&#45;lsr</title>
<path fill="none" stroke="black" d="M880.55,-541.82C853.04,-508.28 787.3,-428.13 759.62,-394.39"/>
</g>
<!-- nvd -->
<g id="node11" class="node">
<title>nvd</title>
<ellipse fill="none" stroke="black" cx="1165" cy="-198" rx="27" ry="18"/>
<text text-anchor="middle" x="1165" y="-192.95" font-family="Times,serif" font-size="14.00">nvd</text>
</g>
<!-- pzl&#45;&#45;nvd -->
<g id="edge16" class="edge">
<title>pzl&#45;&#45;nvd</title>
<path fill="none" stroke="black" d="M904.69,-541.62C949.33,-482.86 1108.79,-272.98 1153.36,-214.33"/>
</g>
<!-- lsr&#45;&#45;lhk -->
<g id="edge23" class="edge">
<title>lsr&#45;&#45;lhk</title>
<path fill="none" stroke="black" d="M761.15,-362.52C817.55,-304.83 1025.96,-91.67 1082.67,-33.66"/>
</g>
<!-- cmg -->
<g id="node9" class="node">
<title>cmg</title>
<ellipse fill="none" stroke="black" cx="1301" cy="-558" rx="27.3" ry="18"/>
<text text-anchor="middle" x="1301" y="-552.95" font-family="Times,serif" font-size="14.00">cmg</text>
</g>
<!-- cmg&#45;&#45;qnr -->
<g id="edge7" class="edge">
<title>cmg&#45;&#45;qnr</title>
<path fill="none" stroke="black" d="M1289.17,-541.52C1263.45,-507.85 1202.68,-428.32 1176.9,-394.58"/>
</g>
<!-- cmg&#45;&#45;nvd -->
<g id="edge8" class="edge">
<title>cmg&#45;&#45;nvd</title>
<path fill="none" stroke="black" d="M1294.85,-540.1C1282.42,-505.98 1253.32,-426.47 1228,-360 1207.91,-307.27 1183.35,-245.16 1171.72,-215.88"/>
</g>
<!-- cmg&#45;&#45;lhk -->
<g id="edge9" class="edge">
<title>cmg&#45;&#45;lhk</title>
<path fill="none" stroke="black" d="M1301.48,-539.68C1302.09,-505.14 1301.83,-425.4 1289,-360 1272.73,-277.11 1268.86,-253.93 1228,-180 1194.71,-119.76 1138.17,-59.79 1111.61,-33.22"/>
</g>
<!-- qnr&#45;&#45;nvd -->
<g id="edge17" class="edge">
<title>qnr&#45;&#45;nvd</title>
<path fill="none" stroke="black" d="M1165,-359.61C1165,-325.58 1165,-250.55 1165,-216.46"/>
</g>
<!-- nvd&#45;&#45;lhk -->
<g id="edge22" class="edge">
<title>nvd&#45;&#45;lhk</title>
<path fill="none" stroke="black" d="M1158.6,-180.25C1145.64,-146.33 1116.42,-69.83 1103.43,-35.83"/>
</g>
<!-- bvb&#45;&#45;xhk -->
<g id="edge13" class="edge">
<title>bvb&#45;&#45;xhk</title>
<path fill="none" stroke="black" d="M290.06,-365.04C238.81,-332.7 97.81,-243.7 46.23,-211.14"/>
</g>
<!-- bvb&#45;&#45;hfx -->
<g id="edge14" class="edge">
<title>bvb&#45;&#45;hfx</title>
<path fill="none" stroke="black" d="M305.96,-359.73C295.29,-299.12 259.63,-96.44 249.01,-36.09"/>
</g>
<!-- ntq -->
<g id="node14" class="node">
<title>ntq</title>
<ellipse fill="none" stroke="black" cx="241" cy="-918" rx="27" ry="18"/>
<text text-anchor="middle" x="241" y="-912.95" font-family="Times,serif" font-size="14.00">ntq</text>
</g>
<!-- ntq&#45;&#45;jqt -->
<g id="edge18" class="edge">
<title>ntq&#45;&#45;jqt</title>
<path fill="none" stroke="black" d="M234.6,-900.25C221.64,-866.33 192.42,-789.83 179.43,-755.83"/>
</g>
<!-- ntq&#45;&#45;xhk -->
<g id="edge21" class="edge">
<title>ntq&#45;&#45;xhk</title>
<path fill="none" stroke="black" d="M225.61,-903.18C197.77,-877.26 139.25,-818.3 110,-756 18.19,-560.41 23.04,-287.41 26.08,-216.42"/>
</g>
<!-- ntq&#45;&#45;hfx -->
<g id="edge19" class="edge">
<title>ntq&#45;&#45;hfx</title>
<path fill="none" stroke="black" d="M257.47,-903.62C309.2,-859.97 465,-715.53 465,-559 465,-559 465,-559 465,-377 465,-221.81 313.39,-77.03 262.46,-32.77"/>
</g>
<!-- ntq&#45;&#45;bvb -->
<g id="edge20" class="edge">
<title>ntq&#45;&#45;bvb</title>
<path fill="none" stroke="black" d="M243.19,-899.71C253.43,-818.68 296.6,-477.11 306.82,-396.23"/>
</g>
<!-- rzs -->
<g id="node15" class="node">
<title>rzs</title>
<ellipse fill="none" stroke="black" cx="1087" cy="-918" rx="27" ry="18"/>
<text text-anchor="middle" x="1087" y="-912.95" font-family="Times,serif" font-size="14.00">rzs</text>
</g>
<!-- rzs&#45;&#45;rsh -->
<g id="edge27" class="edge">
<title>rzs&#45;&#45;rsh</title>
<path fill="none" stroke="black" d="M1075.6,-901.52C1050.83,-867.85 992.3,-788.32 967.46,-754.58"/>
</g>
<!-- rzs&#45;&#45;lsr -->
<g id="edge26" class="edge">
<title>rzs&#45;&#45;lsr</title>
<path fill="none" stroke="black" d="M1067.94,-904.72C1030.74,-880.06 947.36,-821.23 893,-756 834.28,-685.53 825,-661.59 792,-576 767.39,-512.17 754.16,-431.28 749.26,-396.35"/>
</g>
<!-- rzs&#45;&#45;cmg -->
<g id="edge25" class="edge">
<title>rzs&#45;&#45;cmg</title>
<path fill="none" stroke="black" d="M1100.05,-902.26C1123.92,-874.84 1175.31,-813.54 1210,-756 1248.13,-692.76 1281.21,-610.88 1294.63,-575.97"/>
</g>
<!-- rzs&#45;&#45;qnr -->
<g id="edge24" class="edge">
<title>rzs&#45;&#45;qnr</title>
<path fill="none" stroke="black" d="M1089.51,-899.71C1101.25,-818.68 1150.78,-477.11 1162.5,-396.23"/>
</g>
</g>
</svg>
